<svg xmlns="http://www.w3.org/2000/svg" xmlns:xlink="http://www.w3.org/1999/xlink" width="283.46px" height="283.46px" viewBox="0 0 283.46 283.46" enable-background="new 0 0 283.46 283.46">
<rect id="base" x="0.002" y="0.002" fill="#00008F" width="283.464" height="283.464"/>
    <polygon fill="#FF1721" points="175.66,139.99 283.466,0 267.544,0 159.38,139.99 "/>
    <path fill="#FFFFFF" d="M216.597,202.46c4.941,13.824,15.121,49.795,19.17,52.662h-26.729c0,0-0.099-5.312-1.256-9.435
	c-1.152-4.11-10.82-35.215-10.82-35.215h-42.455l-6.676,9.463c0,0,8.019,25.099,8.517,26.328c0.864,2.217,4.692,8.856,4.692,8.856
	h-25.616c0,0-0.664-3.832-0.913-5.43c-0.201-1.289-2.427-8.35-2.427-8.35s-5.806,6.361-7.388,9.312
	c-1.597,2.944-2.305,4.468-2.305,4.468h-20.039c0,0-0.669-3.832-0.918-5.43c-0.195-1.289-2.646-8.916-2.646-8.916
	s-5.61,6.812-7.207,9.756c-1.587,2.949-2.271,4.59-2.271,4.59H69.493c0,0,5.6-5.332,7.558-7.621
	c3.301-3.883,15.601-19.957,15.601-19.957l-4.931-17.069H45.586c0,0-24.023,31.567-24.97,32.544
	c-0.957,0.962-7.959,11.011-8.116,12.104H0v-7.949c0.239-0.243,0.41-0.42,0.493-0.479c0.386-0.283,18.213-22.412,34.59-44.232
	c14.717-19.028,28.525-37.535,29.736-39.297c2.935-4.264,7.163-13.468,7.163-13.468h21.782c0,0,0.674,8.468,1.309,10.522
	c0.566,1.816,13.837,45.361,14.15,45.83l7.339-9.385l-12.544-38.613c0,0-2.939-7.266-3.896-8.354h25.444c0,0-0.2,3.735,0.83,6.919
	c1.035,3.184,6.49,22.866,6.49,22.866s17.353-21.753,18.369-23.315c1.908-2.621,2.144-6.47,2.144-6.47H174.6
	c0,0-3.882,2.837-10.685,11.44c-2.285,2.896-24.672,31.348-24.672,31.348s1.953,6.66,2.905,9.977
	c0.26,0.951,0.439,1.597,0.439,1.664c0,0.029,0.492-0.576,1.343-1.664c5.776-7.319,32.051-41.772,33.644-44.723
	c1.283-2.383,3.174-5.093,4.281-8.042h20.684c0,0,0.479,6.177,1.108,7.886L216.597,202.46z M185.123,169.849
	c-3.037,6.533-20.914,28.296-20.914,28.296h28.312c0,0-5.487-16.899-6.444-20.708c-0.763-3.031-0.558-6.934-0.558-7.402
	C185.518,169.688,185.455,169.126,185.123,169.849z M76.348,169.849c-3.037,6.533-20.913,28.296-20.913,28.296h28.311
	c0,0-5.483-16.899-6.44-20.708c-0.762-3.031-0.557-6.934-0.557-7.402C76.748,169.688,76.68,169.126,76.348,169.849z M118.97,235.835
	l7.793-10.703c-0.718-0.771-5.108-14.082-5.108-14.082l-7.534,9.775L118.97,235.835z"/>
</svg>
