<svg xmlns="http://www.w3.org/2000/svg" width="307" height="83">
    <path fill="#007C34" fill-rule="evenodd"
          d="M299.821 39.225c-.058.019-1.667.186-1.667.186s-24.878-.144-27.059-.158c9.199-6.71 22.32-16.228 23.153-16.61 1.374-.605 2.704-.893 4.051-.893 4.872 0 8.701 3.846 8.701 8.763 0 5.029-3.594 8.018-7.179 8.712zm-7.232-17.866s-17.614 12.632-21.961 15.743c2.614-8.125 8.425-26.123 8.925-27.026.741-1.285 1.662-2.3 2.741-3.092 3.948-2.859 9.303-1.983 12.206 1.993 1.246 1.705 1.765 3.483 1.765 5.183 0 2.346-.99 4.517-2.432 6.062-.039.056-1.244 1.137-1.244 1.137zM268.582 37.2c-.663-2.072-8.276-25.663-8.276-25.663l-.336-1.582a9.722 9.722 0 0 1-.057-1.043c0-3.418 1.841-7.096 6.222-8.484 4.688-1.471 9.528.987 11.003 5.625.289.931.429 1.891.429 2.859 0 .391-.014.792-.056 1.183-.121 1.015-5.259 16.339-8.929 27.105zm-24.015-15.841l-1.202-1.081c-1.466-1.583-2.476-3.772-2.476-6.128 0-1.69.522-3.468 1.776-5.173 2.895-3.976 8.253-4.852 12.196-1.993a9.255 9.255 0 0 1 2.69 3.026c.504.876 5.502 16.266 8.961 27.092a53875.492 53875.492 0 0 0-21.945-15.743zm21.502 17.894c-2.185.014-27.047.158-27.047.158l-1.626-.167c-3.64-.713-7.228-3.702-7.228-8.731 0-4.917 3.8-8.763 8.683-8.763 1.357 0 2.691.288 3.973.856.919.419 14.036 9.937 23.245 16.647zm-54.105-8.237h-11.917c-.142.308-3.638 8.358-3.638 8.358h-4.779l12.601-29.056h3.25l13.105 29.056h-4.792s-3.699-8.061-3.83-8.358zm-6.165-13.541c-.391.95-3.66 8.735-3.932 9.368h8.173c-.289-.651-3.82-8.437-4.241-9.368zm-15.29 14.323c0 4.605-3.517 7.963-8.334 7.963-3.152 0-5.782-.862-8.238-2.678l-.089-.084v-6.02l.467.573c2.078 2.63 4.631 4.023 7.399 4.023 3.224 0 4.434-2.026 4.434-3.32 0-2.58-2.653-4.154-5.462-5.821-3.289-1.965-7.015-4.182-7.015-8.493 0-4.764 3.546-7.837 9.014-7.837 2.253 0 4.527.707 6.562 2.048l.104.066v5.368l-.43-.419c-2.04-1.909-4.253-2.877-6.573-2.877-2.543 0-4.301 1.276-4.301 3.12 0 2.216 2.274 3.483 4.924 4.973 3.531 1.955 7.538 4.181 7.538 9.415zm-44.4-13.839v21.415h-4.41V10.476h3.673s18.269 20.578 19.138 21.56v-21.56h4.397v28.898h-3.911s-18.028-20.427-18.887-21.415zm-25.918-7.483h16.872v4.186h-12.211v8.047h11.786v4.19h-11.786v8.308h12.589v4.167h-17.25V10.476zm-13.464 16.629h-4.056v12.269H98.02V10.476h9.256c6.947 0 9.427 4.354 9.427 8.423 0 5.142-3.732 8.206-9.976 8.206zm.549-12.443h-4.605v8.261h4.444c3.003 0 4.794-1.564 4.794-4.181 0-1.239-.455-4.08-4.633-4.08zm-19.821 3c-.7.856-8.57 10.606-8.57 10.606h-.929s-7.874-9.75-8.574-10.606v21.712h-4.654V10.476h4.261s9.051 11.041 9.434 11.516c.378-.475 9.462-11.516 9.462-11.516h4.222v28.898h-4.652V17.662zM45.026 39.761c-10.153 0-15.636-7.627-15.636-14.827 0-8.446 6.762-14.83 15.729-14.83 9.119 0 15.756 6.244 15.756 14.83 0 7.376-5.437 14.827-15.849 14.827zm.093-25.378c-6.342 0-10.946 4.424-10.946 10.551 0 6.026 4.707 10.561 10.946 10.561 6.257 0 10.978-4.535 10.978-10.561 0-6.127-4.614-10.551-10.978-10.551zM16.033 39.761C4.509 39.761.217 30.923.217 25.344c0-8.819 6.76-15.24 16.063-15.24 3.013 0 6.007.698 10 2.356l.159.065v4.987l-.402-.214c-3.512-2.021-6.529-2.915-9.794-2.915-6.403 0-11.232 4.545-11.232 10.589 0 6.193 4.689 10.523 11.4 10.523 3.204 0 6.721-1.126 9.915-3.165l.402-.266v5.093l-.149.076c-2.415 1.252-5.572 2.528-10.546 2.528z"/>
    <path fill="#ED1C24" fill-rule="evenodd" d="M0 55.169h306.906v-4.661L0 50.503v4.666z"/>
    <path fill-rule="evenodd"
          d="M301.386 76.412h-3.902v6.439h-2.603V66.47h6.505c3.349 0 5.494 2.113 5.494 4.959 0 2.869-2.145 4.983-5.494 4.983zm-.149-7.716h-3.753v5.462h3.753c1.812 0 3.04-.993 3.04-2.729 0-1.718-1.228-2.733-3.04-2.733zM284.418 83c-3.488 0-6.135-2.291-6.135-5.667V66.47h2.6v10.743c0 2.192 1.395 3.548 3.535 3.548 2.145 0 3.576-1.356 3.576-3.548V66.47h2.594v10.863c0 3.376-2.671 5.667-6.17 5.667zm-11.446-1.755c-1.177 1.117-2.693 1.755-4.517 1.755-1.834 0-3.324-.638-4.51-1.755-1.687-1.612-1.659-3.431-1.659-6.584 0-3.157-.028-4.974 1.659-6.594 1.186-1.113 2.676-1.737 4.51-1.737 1.824 0 3.34.624 4.517 1.737 1.695 1.62 1.651 3.437 1.651 6.594 0 3.153.044 4.972-1.651 6.584zm-1.961-11.674c-.613-.62-1.546-1.01-2.556-1.01-1.02 0-1.956.39-2.553 1.01-.844.876-1.014 1.793-1.014 5.09 0 3.291.17 4.205 1.014 5.089.597.62 1.533 1.011 2.553 1.011 1.01 0 1.943-.391 2.556-1.011.84-.884 1.008-1.798 1.008-5.089 0-3.297-.168-4.214-1.008-5.09zm-14.478 13.28l-3.624-6.9h-3.246v6.9h-2.601V66.47h6.646c3.255 0 5.321 1.993 5.321 4.782 0 2.342-1.488 3.846-3.417 4.349l3.952 7.25h-3.031zm-.103-11.575c0-1.616-1.178-2.58-2.91-2.58h-3.857v5.13h3.857c1.732 0 2.91-.94 2.91-2.55zM237.088 83c-1.791 0-3.326-.638-4.513-1.755-1.687-1.612-1.655-3.431-1.655-6.584 0-3.157-.032-4.974 1.655-6.594 1.187-1.113 2.675-1.737 4.513-1.737 2.328 0 3.638.689 5.173 2.156l-1.757 1.686c-1.088-1.039-1.874-1.611-3.416-1.611-1.011 0-1.959.39-2.557 1.01-.84.876-1.009 1.793-1.009 5.09 0 3.291.169 4.237 1.009 5.113.598.624 1.546.987 2.557.987 1.131 0 2.067-.41 2.739-1.155.631-.666.843-1.579.843-2.603v-.894h-3.582v-2.11h6.181v2.454c0 2.124-.383 3.497-1.513 4.652-1.21 1.22-2.791 1.895-4.668 1.895zm-25.996-16.53h10.956v2.226h-8.36v4.787h7.134v2.211h-7.134v4.927h8.36v2.23h-10.956V66.47zm-8.361 14.291c1.425 0 2.172-.531 3.062-1.379l1.733 1.677c-1.285 1.197-2.65 1.941-4.795 1.941-1.785 0-3.32-.638-4.51-1.755-1.682-1.612-1.657-3.431-1.657-6.584 0-3.157-.025-4.974 1.657-6.594 1.19-1.113 2.725-1.737 4.51-1.737 2.145 0 3.51.731 4.795 1.928l-1.733 1.681c-.89-.852-1.637-1.378-3.062-1.378-1.008 0-1.927.372-2.533.986-.834.881-1.002 1.817-1.002 5.114 0 3.291.168 4.237 1.002 5.113.606.624 1.525.987 2.533.987zm-20.409-9.44v11.53h-2.601V66.47h2.386l7.929 11.506V66.47h2.598v16.381h-2.385l-7.927-11.53zm-9.058 8.239h-6.767l-1.18 3.291h-2.769l6.288-16.381h2.09l6.297 16.381h-2.769l-1.19-3.291zm-3.323-9.388l-2.676 7.269h5.278l-2.602-7.269zm-11.734 12.679l-3.602-6.9h-3.263v6.9h-2.594V66.47h6.653c3.245 0 5.317 1.993 5.317 4.782 0 2.342-1.49 3.846-3.418 4.349l3.948 7.25h-3.041zm-.093-11.575c0-1.616-1.183-2.58-2.912-2.58h-3.86v5.13h3.86c1.729 0 2.912-.94 2.912-2.55zM138.291 83c-3.493 0-6.145-2.291-6.145-5.667V66.47h2.61v10.743c0 2.192 1.387 3.548 3.535 3.548 2.144 0 3.56-1.356 3.56-3.548V66.47h2.61v10.863c0 3.376-2.677 5.667-6.17 5.667zm-16-9.676l1.954.27c1.592.232 2.483.605 3.202 1.225.941.782 1.399 1.96 1.399 3.366 0 3.014-2.583 4.815-6.173 4.815-2.577 0-4.429-.582-6.061-2.174l1.73-1.63c1.254 1.202 2.618 1.565 4.379 1.565 2.246 0 3.542-.922 3.542-2.51 0-.713-.21-1.314-.67-1.705-.435-.395-.868-.554-1.878-.689l-2.021-.274c-1.407-.187-2.509-.643-3.258-1.318-.844-.755-1.257-1.788-1.257-3.125 0-2.854 2.174-4.81 5.738-4.81 2.265 0 3.858.545 5.324 1.863l-1.656 1.564c-1.067-.968-2.291-1.271-3.731-1.271-2.034 0-3.136 1.109-3.136 2.561 0 .596.191 1.127.644 1.524.432.362 1.135.641 1.929.753zm-19.031-2.003v11.53h-2.597V66.47h2.384l7.918 11.506V66.47h2.604v16.381h-2.386l-7.923-11.53zm-9.754-4.851h2.599v16.381h-2.599V66.47zM81.188 79.56h-6.762l-1.18 3.291h-2.771l6.288-16.381h2.097l6.284 16.381h-2.77l-1.186-3.291zm-3.32-9.388l-2.672 7.269h5.275l-2.603-7.269zm-20.213 1.149v11.53h-2.604V66.47h2.389l7.925 11.506V66.47h2.606v16.381h-2.386l-7.93-11.53zm-17.462 0v11.53h-2.607V66.47h2.389l7.923 11.506V66.47h2.606v16.381h-2.386l-7.925-11.53zM22.987 66.47h10.961v2.226h-8.355v4.787h7.122v2.211h-7.122v4.927h8.355v2.23H22.987V66.47zm-7.15 0h2.597v16.381h-2.597V66.47zM5.698 82.851L.056 66.47h2.695l3.956 11.92 3.951-11.92h2.741L7.715 82.851H5.698z"/>
</svg>
