<?xml version="1.0" encoding="UTF-8"?>
<svg width="173px" height="30px" viewBox="0 0 173 30" version="1.1" xmlns="http://www.w3.org/2000/svg" xmlns:xlink="http://www.w3.org/1999/xlink">
    <title>DDEBAF49-A219-4C3E-98A9-76A4CF260814</title>
    <desc>Created with sketchtool.</desc>
    <g id="UI" stroke="none" stroke-width="1" fill="none" fill-rule="evenodd">
        <g id="Warta-Direct-2.0---desktop-UI" transform="translate(-100.000000, -43.000000)">
            <g id="Warta-logo" transform="translate(100.000000, 43.000000)">
                <g>
                    <polygon id="Rectangle-path" fill="#A0003B" fill-rule="nonzero" points="163.127002 19.7384615 172.725213 19.7384615 172.725213 29.2769231 163.127002 29.2769231"></polygon>
                    <polygon id="Shape" fill="#003366" fill-rule="nonzero" points="0 0.730769231 7.75597315 0.730769231 13.9561074 20.6461538 14.076085 20.6461538 19.8621029 0.730769231 27.6142058 0.730769231 33.8220805 20.6461538 33.9381879 20.6461538 39.9022371 0.730769231 47.1202461 0.730769231 37.3981879 29.1807692 30.3001566 29.1807692 23.5001342 9.73846154 23.3801566 9.73846154 17.3580537 29.1807692 9.96201342 29.1807692"></polygon>
                    <path d="M66.0689709,21.8538462 C64.83091,23.4844745 62.8798333,24.4246058 60.8247875,24.3807692 C58.1736689,24.3807692 56.1069575,23.3307692 56.1069575,20.9192308 C56.1069575,16.55 61.037651,16.3884615 64.3738031,16.3884615 L67.6054586,16.3884615 C67.6054586,18.6 67.2880984,20.2346154 66.0573602,21.8653846 M62.6631544,0.0115384615 C59.5398658,0.0115384615 54.7678523,1.01153846 52.7011409,1.90769231 L52.7011409,6.90769231 C54.6594855,6.27692308 58.6380984,5.32692308 61.8155705,5.32692308 C66.1618568,5.32692308 68.2285682,6.95769231 68.2285682,11.9615385 L64.1609396,11.9615385 C61.0337808,11.9615385 57.3763982,12.2269231 54.5162864,13.5961538 C51.6561745,14.9653846 49.6397763,17.1230769 49.6397763,21.3346154 C49.6397763,26.7615385 54.5665996,29.7961538 59.6559732,29.7961538 C63.0463087,29.7961538 66.7540045,28.0038462 68.507226,24.9 L68.6117226,24.9 L68.5575391,29.1115385 L75.0208501,29.1115385 L75.0208501,12.0153846 C75.0208501,3.58846154 71.417651,0.00769230769 62.6747651,0.00769230769" id="Shape" fill="#003366" fill-rule="nonzero"></path>
                    <path d="M148.45877,21.8538462 C147.220709,23.4844745 145.269632,24.4246058 143.214586,24.3807692 C140.563468,24.3807692 138.496756,23.3307692 138.496756,20.9192308 C138.496756,16.55 143.42745,16.3884615 146.767472,16.3884615 L150.006868,16.3884615 C150.006868,18.6 149.685638,20.2346154 148.45877,21.8653846 M144.433714,0 C141.306555,0 136.538412,1 134.46783,1.89615385 L134.46783,6.89615385 C136.430045,6.26538462 140.404787,5.31538462 143.58613,5.31538462 C147.932416,5.31538462 149.999128,6.94615385 149.999128,11.95 L145.916018,11.95 C142.788859,11.95 139.131477,12.2153846 136.271365,13.5846154 C133.411253,14.9538462 131.394855,17.1115385 131.394855,21.3230769 C131.394855,26.75 136.325548,29.7846154 141.411051,29.7846154 C144.805257,29.7846154 148.512953,27.9923077 150.262304,24.8884615 L150.370671,24.8884615 L150.316488,29.1 L156.779799,29.1 L156.779799,12.0153846 C156.779799,3.58846154 153.1766,0.00769230769 144.433714,0.00769230769" id="Shape" fill="#003366" fill-rule="nonzero"></path>
                    <path d="M125.19472,6.52692308 L125.19472,0.734615385 L104.190895,0.734615385 L104.190895,6.52692308 L109.756309,6.52692308 L109.756309,20.6346154 C109.756309,26.3153846 112.639642,29.5538462 118.518546,29.5538462 C121.068441,29.5288743 123.597937,29.0990959 126.011342,28.2807692 L125.957159,23.0769231 C124.227273,23.6485516 122.416009,23.939459 120.592998,23.9384615 C117.109776,23.9384615 117.1717,21.7115385 117.1717,19 L117.1717,6.52692308 L125.19472,6.52692308 Z" id="Shape" fill="#003366" fill-rule="nonzero"></path>
                    <path d="M100.216152,0.215384615 C99.6599188,0.0891442324 99.0915236,0.0233732116 98.5209843,0.0192307692 C94.9073644,-0.0647964685 91.5852278,1.98126149 90.0528859,5.23461538 L89.9329083,5.23461538 L89.9329083,0.730769231 L82.7768233,0.730769231 L82.7768233,29.1923077 L89.9329083,29.1923077 L89.9329083,13.9384615 C89.9329083,12.4 90.8888591,6.76538462 97.6269575,6.76538462 C98.4993908,6.78083083 99.3675519,6.89044866 100.216152,7.09230769 L100.216152,0.215384615 Z" id="Shape" fill="#003366" fill-rule="nonzero"></path>
                </g>
            </g>
        </g>
    </g>
</svg>
