<?xml version="1.0" encoding="UTF-8" standalone="no"?>
<svg
   xmlns:dc="http://purl.org/dc/elements/1.1/"
   xmlns:cc="http://creativecommons.org/ns#"
   xmlns:rdf="http://www.w3.org/1999/02/22-rdf-syntax-ns#"
   xmlns:svg="http://www.w3.org/2000/svg"
   xmlns="http://www.w3.org/2000/svg"
   xmlns:sodipodi="http://sodipodi.sourceforge.net/DTD/sodipodi-0.dtd"
   xmlns:inkscape="http://www.inkscape.org/namespaces/inkscape"
   viewBox="0 0 338.01999 117.07"
   height="117.07"
   width="338.01999"
   version="1.1"
   id="svg3771"
   sodipodi:docname="logo.svg"
   inkscape:version="0.92.4 (5da689c313, 2019-01-14)">
  <metadata
     id="metadata3777">
    <rdf:RDF>
      <cc:Work
         rdf:about="">
        <dc:format>image/svg+xml</dc:format>
        <dc:type
           rdf:resource="http://purl.org/dc/dcmitype/StillImage" />
        <dc:title></dc:title>
      </cc:Work>
    </rdf:RDF>
  </metadata>
  <defs
     id="defs3775" />
  <sodipodi:namedview
     pagecolor="#ffffff"
     bordercolor="#666666"
     borderopacity="1"
     objecttolerance="10"
     gridtolerance="10"
     guidetolerance="10"
     inkscape:pageopacity="0"
     inkscape:pageshadow="2"
     inkscape:window-width="3440"
     inkscape:window-height="1377"
     id="namedview3773"
     showgrid="false"
     inkscape:zoom="1.4348672"
     inkscape:cx="297.63779"
     inkscape:cy="309.43631"
     inkscape:window-x="-8"
     inkscape:window-y="-8"
     inkscape:window-maximized="1"
     inkscape:current-layer="text31"
     inkscape:pagecheckerboard="true"
     inkscape:snap-path-clip="false"
     units="in" />
  <g
     id="text31"
     aria-label="Rok Zał. 1990"
     transform="translate(0,-724.81977)">
    <g
       transform="matrix(0.9822276,0,0,0.9822276,-121.32552,540.1437)"
       id="Layer1000">
      <g
         id="Layer1001">
        <path
           inkscape:connector-curvature="0"
           id="path2"
           style="fill:#00378b;fill-rule:evenodd;stroke:#00378b;stroke-width:1.00829995;stroke-linecap:butt;stroke-linejoin:miter;stroke-dasharray:none"
           d="m 197.4206,223.9195 c 0,-5.7137 -24.5352,3.6971 -24.5352,0.6722 v -6.3859 h 30.585 l -0.3361,30.249 c 0,2.0166 0.6722,5.3776 -4.7054,9.4108 -4.3693,3.361 -9.4107,4.0332 -16.4688,3.6971 -3.361,0 -5.7137,0.3361 -11.0913,-2.3527 -2.3527,-1.3444 -7.0581,-7.3942 -9.0747,-14.7884 -1.3444,-6.0498 5.0415,10.7552 10.7552,12.0996 8.7386,2.3527 24.8713,2.0166 24.8713,-9.4108 z" />
        <path
           inkscape:connector-curvature="0"
           id="path4"
           style="fill:#00378b;fill-rule:evenodd;stroke:#00378b;stroke-width:1.00829995;stroke-linecap:butt;stroke-linejoin:miter;stroke-dasharray:none"
           d="m 223.9725,217.8697 c 15.1245,0 27.5602,10.083 27.5602,22.1826 0,12.4357 -12.4357,22.5187 -27.5602,22.5187 -15.4606,0 -27.8963,-10.083 -27.8963,-22.5187 0,-12.0996 12.4357,-22.1826 27.8963,-22.1826 z" />
      </g>
      <path
         inkscape:connector-curvature="0"
         id="path7"
         style="fill:#ffffff;fill-rule:evenodd;stroke:#ffffff;stroke-width:1.00829995;stroke-linecap:butt;stroke-linejoin:miter;stroke-dasharray:none"
         d="m 229.6862,220.5585 c -12.0996,0 -22.1826,8.4025 -22.1826,18.4855 0,10.083 10.083,18.1494 22.1826,18.1494 12.4357,0 22.1826,-8.0664 22.1826,-18.1494 0,-10.083 -9.7469,-18.4855 -22.1826,-18.4855 z" />
      <g
         id="Layer1002">
        <path
           inkscape:connector-curvature="0"
           id="path9"
           style="fill:#00378b;fill-rule:evenodd;stroke:#00378b;stroke-width:1.00829995;stroke-linecap:butt;stroke-linejoin:miter;stroke-dasharray:none"
           d="m 236.0721,254.1685 h 9.4108 v -11.4274 h -9.4108 z" />
        <path
           inkscape:connector-curvature="0"
           id="path11"
           style="fill:#00378b;fill-rule:evenodd;stroke:#00378b;stroke-width:1.00829995;stroke-linecap:butt;stroke-linejoin:miter;stroke-dasharray:none"
           d="m 242.458,253.1602 c 0.3361,0.3361 1.0083,1.0083 1.6805,1.0083 l -8.0664,2.6888 v -2.6888 c 1.6805,-0.6722 4.3693,-1.3444 6.3859,-1.0083 z" />
        <path
           inkscape:connector-curvature="0"
           id="path13"
           style="fill:#00378b;fill-rule:evenodd;stroke:#00378b;stroke-width:1.00829995;stroke-linecap:butt;stroke-linejoin:miter;stroke-dasharray:none"
           d="m 238.0887,247.7826 c -2.6888,0 -9.0747,1.3444 -10.7552,0.6722 -0.6722,-0.6722 -1.3444,-2.3527 1.0083,-2.6888 l 8.0664,-0.3361 -0.3361,-2.6888 c -1.6805,0 -12.4357,-0.6722 -12.7718,1.0083 -2.6888,2.6888 -1.0083,6.0498 0.6722,6.722 5.0415,2.6888 12.7718,-0.6722 14.4523,-1.0083 z" />
        <path
           inkscape:connector-curvature="0"
           id="path15"
           style="fill:#00378b;fill-rule:evenodd;stroke:#00378b;stroke-width:1.00829995;stroke-linecap:butt;stroke-linejoin:miter;stroke-dasharray:none"
           d="M 258.9269,243.0772 H 437.396 c 2.6888,0 2.6888,2.3527 0,2.6888 H 253.2132 c -5.3776,0.3361 -8.4025,1.6805 -11.0913,2.6888 l -0.3361,-2.0166 c 7.7303,-3.0249 11.0913,-3.6971 17.1411,-3.361 z" />
      </g>
      <path
         inkscape:connector-curvature="0"
         id="path18"
         style="fill:#00378b;fill-rule:evenodd"
         d="M 272.707,238.7079 278.7568,225.6 h 2.6888 l 6.3859,13.1079 h -2.3527 l -2.0166,-3.6971 h -7.0581 l -1.6805,3.6971 z m 7.0581,-11.0913 -2.6888,6.0498 h 5.7137 z m 19.8299,4.3693 h 7.3942 v 6.722 h -1.6805 l -0.6722,-1.6805 c -0.6722,1.3444 -3.0249,2.0166 -5.0415,2.0166 -6.0498,0 -8.0664,-4.3693 -8.0664,-7.0581 0,-3.6971 3.0249,-6.3859 8.0664,-6.722 2.0166,0 6.0498,0.3361 7.0581,3.6971 l -2.0166,0.3361 c -0.6722,-2.0166 -3.0249,-2.6888 -5.0415,-2.6888 -4.0332,0 -5.3776,3.0249 -5.3776,5.3776 0,1.6805 0.6722,5.3776 5.3776,5.3776 2.6888,0 5.0415,-0.6722 5.0415,-4.0332 H 299.595 Z M 314.0473,225.6 h 12.4357 v 1.6805 h -9.7469 v 4.0332 h 7.7303 v 1.3444 h -7.7303 v 4.7054 h 10.083 v 1.3444 h -12.7718 z m 17.4772,0 h 3.0249 l 9.0747,10.7552 V 225.6 h 2.0166 v 13.1079 h -2.3527 l -9.7469,-11.0913 v 11.0913 h -2.0166 z m 33.2739,8.7386 2.6888,0.3361 c -1.6805,4.3693 -6.3859,4.3693 -8.0664,4.3693 -9.4108,-0.3361 -10.083,-13.1079 0.3361,-13.7801 3.6971,0 7.0581,1.6805 7.3942,4.0332 l -2.3527,0.3361 c -0.6722,-2.6888 -4.0332,-3.0249 -5.0415,-3.0249 -6.722,0.3361 -6.0498,9.7469 -1.0083,10.7552 2.3527,0.3361 5.0415,0 6.0498,-3.0249 z M 377.2341,225.6 h 2.6888 v 9.7469 c 0,4.0332 -6.0498,4.0332 -8.7386,3.361 v -1.3444 c 2.6888,0.3361 6.0498,0.6722 6.0498,-2.0166 z m 7.7303,13.1079 6.0498,-13.1079 h 2.6888 l 6.3859,13.1079 h -2.3527 l -2.0166,-3.6971 h -7.0581 l -1.6805,3.6971 z m 7.3942,-11.0913 -3.0249,6.0498 h 5.7137 z" />
      <path
         inkscape:connector-curvature="0"
         id="path20"
         style="fill:#00378b;fill-rule:evenodd;stroke:#00378b;stroke-width:1.00829995;stroke-linecap:butt;stroke-linejoin:miter;stroke-dasharray:none"
         d="m 265.985,249.127 h 7.7303 c 5.0415,0 4.7054,6.3859 0.3361,8.0664 l 1.3444,6.3859 h -3.6971 l -1.3444,-5.7137 h -2.3527 l -1.0083,5.7137 h -3.6971 z m 3.361,2.6888 -1.0083,3.361 h 3.361 c 2.3527,0 3.0249,-3.0249 0.6722,-3.361 z m 17.4772,-2.6888 h 11.7635 l -0.6722,3.0249 -9.0747,8.7386 h 7.3942 l -0.3361,2.6888 h -12.4357 l 0.6722,-2.6888 9.4108,-8.7386 h -7.0581 z m 28.2324,0 h 3.0249 l -6.3859,8.4025 -1.0083,6.0498 h -3.6971 l 1.3444,-6.0498 -3.361,-8.4025 h 4.3693 l 1.6805,5.3776 z m 10.083,0 h 8.0664 c 4.7054,0 4.3693,5.7137 0,6.722 4.3693,1.0083 3.361,8.0664 -4.3693,7.7303 h -6.3859 z m 3.0249,2.3527 -0.3361,3.0249 h 2.6888 c 2.6888,0 3.361,-2.6888 1.3444,-3.0249 z m -1.0083,5.7137 -0.6722,3.6971 h 3.0249 c 2.3527,0 4.0332,-3.361 0.6722,-3.6971 z m 25.5436,-0.6722 c 0.6722,-2.6888 0.3361,-4.7054 -1.6805,-4.7054 -2.0166,-0.3361 -3.361,2.0166 -3.6971,4.3693 -0.6722,3.361 0,5.0415 1.3444,5.0415 2.0166,0 3.361,-1.6805 4.0332,-4.7054 z m -8.7386,-1.6805 c 1.6805,-5.3776 6.0498,-6.0498 8.4025,-6.0498 4.0332,0.6722 5.0415,5.0415 3.6971,8.7386 -1.0083,3.6971 -4.0332,6.722 -8.0664,6.3859 -4.0332,-0.3361 -5.7137,-4.3693 -4.0332,-9.0747 z m 20.166,-5.7137 h 3.6971 l 0.3361,9.7469 4.3693,-9.7469 h 3.361 l 0.3361,9.7469 4.3693,-9.7469 h 3.0249 l -6.722,14.4523 h -3.361 l -0.6722,-9.4108 -4.0332,9.4108 h -3.6971 z m 33.2739,4.0332 c -0.6722,-1.6805 -1.6805,-1.6805 -2.3527,-1.6805 -1.3444,0 -2.3527,0.6722 -2.3527,1.6805 0,1.3444 3.361,1.0083 5.7137,2.3527 1.3444,1.0083 1.3444,2.3527 0.6722,4.3693 -2.0166,5.3776 -12.0996,5.0415 -11.7635,-0.3361 l 3.361,-0.6722 c 0,0 0,2.0166 2.6888,2.3527 1.6805,0 2.6888,-1.0083 2.3527,-2.3527 0,-1.0083 -3.6971,-1.3444 -4.3693,-1.6805 -3.361,-1.0083 -2.6888,-4.3693 -0.6722,-6.3859 3.0249,-3.0249 9.4108,-2.0166 9.7469,1.3444 z m 12.4357,-4.0332 h 3.361 l -1.3444,7.0581 6.0498,-7.0581 h 3.361 l -4.3693,5.3776 2.3527,9.0747 h -3.6971 l -2.0166,-6.0498 -2.6888,3.0249 -0.3361,3.0249 h -3.361 z m 19.8299,0 h 3.6971 l -3.0249,14.4523 h -3.361 z" />
    </g>
    <path
       inkscape:connector-curvature="0"
       id="path23"
       style="fill:none;stroke:#00378b;stroke-width:0.55682486;stroke-linecap:butt;stroke-linejoin:miter;stroke-dasharray:none"
       d="M 168.95112,726.01731 A 166.00815,57.496166 0 0 1 334.95927,783.51348 166.00815,57.496166 0 1 1 168.95112,726.01731 Z" />
    <path
       inkscape:connector-curvature="0"
       id="path41"
       style="font-size:14px;font-family:Arial;fill:#00378b;stroke-width:0.98222762"
       d="m 139.2456,825.1112 v -9.84339 h 4.36439 q 1.31603,0 2.00091,0.26858 0.68486,0.26187 1.09445,0.93332 0.40958,0.67144 0.40958,1.48389 0,1.04745 -0.67816,1.7659 -0.67816,0.71845 -2.0949,0.91316 0.51701,0.24844 0.78559,0.49016 0.57072,0.52372 1.08103,1.30931 l 1.71217,2.67907 h -1.63832 l -1.3026,-2.04791 q -0.57074,-0.88631 -0.94002,-1.35631 -0.3693,-0.47002 -0.66473,-0.65802 -0.28873,-0.188 -0.59088,-0.26187 -0.22157,-0.0469 -0.72515,-0.0469 h -1.51075 v 4.37111 z m 1.30261,-5.49914 h 2.79992 q 0.89302,0 1.3966,-0.18129 0.50359,-0.18799 0.76545,-0.59086 0.26186,-0.40958 0.26186,-0.88631 0,-0.69831 -0.51029,-1.14817 -0.50359,-0.44987 -1.59804,-0.44987 h -3.1155 z" />
    <path
       inkscape:connector-curvature="0"
       id="path43"
       style="font-size:14px;font-family:Arial;fill:#00378b;stroke-width:0.98222762"
       d="m 148.55853,821.54582 q 0,-1.98076 1.10118,-2.93421 0.91988,-0.7923 2.24262,-0.7923 1.47047,0 2.40378,0.96687 0.9333,0.96017 0.9333,2.65893 0,1.37646 -0.4163,2.16876 -0.40958,0.7856 -1.20188,1.22203 -0.78558,0.43644 -1.7189,0.43644 -1.49731,0 -2.42391,-0.96016 -0.91989,-0.96017 -0.91989,-2.76636 z m 1.24218,0 q 0,1.36976 0.59759,2.05463 0.59758,0.67816 1.50403,0.67816 0.89974,0 1.49732,-0.68487 0.59758,-0.68488 0.59758,-2.0882 0,-1.32274 -0.60429,-2.0009 -0.59759,-0.68488 -1.49061,-0.68488 -0.90645,0 -1.50403,0.67816 -0.59759,0.67816 -0.59759,2.0479 z" />
    <path
       inkscape:connector-curvature="0"
       id="path45"
       style="font-size:14px;font-family:Arial;fill:#00378b;stroke-width:0.98222762"
       d="m 156.66959,825.1112 v -9.84339 h 1.2086 v 5.61329 l 2.86035,-2.90065 h 1.56447 l -2.72606,2.6455 3.00135,4.48525 h -1.49061 l -2.35677,-3.64595 -0.85273,0.81917 v 2.82678 z" />
    <path
       inkscape:connector-curvature="0"
       id="path47"
       style="font-size:14px;font-family:Arial;fill:#00378b;stroke-width:0.98222762"
       d="m 166.72111,825.1112 v -1.2086 l 5.04255,-6.30487 q 0.53716,-0.67144 1.0206,-1.16831 h -5.49241 v -1.16161 h 7.05016 v 1.16161 l -5.52598,6.82859 -0.59759,0.69159 h 6.28472 v 1.1616 z" />
    <path
       inkscape:connector-curvature="0"
       id="path49"
       style="font-size:14px;font-family:Arial;fill:#00378b;stroke-width:0.98222762"
       d="m 180.41187,824.23161 q -0.67144,0.57072 -1.29588,0.80573 -0.61773,0.235 -1.32947,0.235 -1.17502,0 -1.80619,-0.57072 -0.63116,-0.57745 -0.63116,-1.47046 0,-0.52374 0.23501,-0.95346 0.24173,-0.43643 0.62445,-0.69831 0.38944,-0.26186 0.87288,-0.39615 0.35586,-0.094 1.07431,-0.18128 1.46375,-0.17458 2.15533,-0.41629 0.007,-0.24844 0.007,-0.31559 0,-0.73859 -0.34243,-1.04073 -0.46331,-0.40959 -1.37647,-0.40959 -0.85274,0 -1.26232,0.30215 -0.40286,0.29543 -0.59758,1.05417 l -1.18175,-0.16115 q 0.16115,-0.75873 0.53045,-1.22203 0.36929,-0.47001 1.06759,-0.71844 0.6983,-0.25515 1.61818,-0.25515 0.91317,0 1.48389,0.21486 0.57073,0.21486 0.83931,0.54387 0.26857,0.3223 0.37601,0.81916 0.0604,0.30887 0.0604,1.1146 v 1.61147 q 0,1.68533 0.0739,2.13519 0.0805,0.44316 0.30885,0.85274 h -1.2623 q -0.18802,-0.37601 -0.24173,-0.87959 z m -0.10072,-2.69921 q -0.65801,0.26858 -1.97404,0.45658 -0.7453,0.10743 -1.05417,0.24172 -0.30887,0.13429 -0.47673,0.39615 -0.16786,0.25516 -0.16786,0.57074 0,0.48343 0.36259,0.80573 0.36928,0.32228 1.07431,0.32228 0.6983,0 1.24217,-0.30214 0.54387,-0.30887 0.79902,-0.83931 0.19471,-0.40958 0.19471,-1.2086 z" />
    <path
       inkscape:connector-curvature="0"
       id="path51"
       style="font-size:14px;font-family:Arial;fill:#00378b;stroke-width:0.98222762"
       d="m 183.3998,821.25711 -0.87288,0.73858 v -1.06088 l 0.87288,-0.73859 v -4.92841 h 1.20189 v 3.90782 l 0.90645,-0.77216 v 1.05416 l -0.90645,0.77216 v 4.88141 h -1.20189 z" />
    <path
       inkscape:connector-curvature="0"
       id="path53"
       style="font-size:14px;font-family:Arial;fill:#00378b;stroke-width:0.98222762"
       d="m 186.81746,825.1112 v -1.37646 h 1.37645 v 1.37646 z" />
    <path
       inkscape:connector-curvature="0"
       id="path55"
       style="font-size:14px;font-family:Arial;fill:#00378b;stroke-width:0.98222762"
       d="m 198.3193,825.1112 h -1.2086 v -7.70147 q -0.43644,0.4163 -1.14817,0.83258 -0.70501,0.4163 -1.26903,0.62446 v -1.16833 q 1.01388,-0.47672 1.77262,-1.15487 0.75872,-0.67816 1.07431,-1.31604 h 0.77887 z" />
    <path
       inkscape:connector-curvature="0"
       id="path57"
       style="font-size:14px;font-family:Arial;fill:#00378b;stroke-width:0.98222762"
       d="m 201.60267,822.83499 1.16159,-0.10742 q 0.14772,0.81916 0.56402,1.18845 0.41629,0.3693 1.06759,0.3693 0.5573,0 0.9736,-0.25515 0.42302,-0.25515 0.69159,-0.67816 0.26858,-0.42972 0.44987,-1.15488 0.18128,-0.72516 0.18128,-1.47718 0,-0.0805 -0.007,-0.24172 -0.36258,0.57744 -0.99373,0.94002 -0.62445,0.35587 -1.35632,0.35587 -1.22203,0 -2.06805,-0.88631 -0.84602,-0.88631 -0.84602,-2.33662 0,-1.49733 0.8796,-2.41049 0.88629,-0.91317 2.21576,-0.91317 0.96016,0 1.75247,0.51701 0.79902,0.51702 1.2086,1.47718 0.41629,0.95345 0.41629,2.76636 0,1.88676 -0.40958,3.00807 -0.40958,1.11459 -1.22203,1.69875 -0.80573,0.58416 -1.89346,0.58416 -1.15489,0 -1.88677,-0.63787 -0.73187,-0.64459 -0.87959,-1.8062 z m 4.94854,-4.34424 q 0,-1.04074 -0.5573,-1.65175 -0.55058,-0.61102 -1.32946,-0.61102 -0.80573,0 -1.40331,0.65801 -0.59759,0.65803 -0.59759,1.70548 0,0.94002 0.56402,1.5309 0.57072,0.58415 1.40331,0.58415 0.8393,0 1.37646,-0.58415 0.54387,-0.59088 0.54387,-1.63162 z" />
    <path
       inkscape:connector-curvature="0"
       id="path59"
       style="font-size:14px;font-family:Arial;fill:#00378b;stroke-width:0.98222762"
       d="m 209.25713,822.83499 1.16161,-0.10742 q 0.14771,0.81916 0.564,1.18845 0.4163,0.3693 1.0676,0.3693 0.5573,0 0.9736,-0.25515 0.423,-0.25515 0.69158,-0.67816 0.26858,-0.42972 0.44988,-1.15488 0.18129,-0.72516 0.18129,-1.47718 0,-0.0805 -0.007,-0.24172 -0.36258,0.57744 -0.99374,0.94002 -0.62444,0.35587 -1.35631,0.35587 -1.22204,0 -2.06805,-0.88631 -0.84602,-0.88631 -0.84602,-2.33662 0,-1.49733 0.87959,-2.41049 0.88631,-0.91317 2.21577,-0.91317 0.96016,0 1.75247,0.51701 0.79902,0.51702 1.2086,1.47718 0.41629,0.95345 0.41629,2.76636 0,1.88676 -0.40958,3.00807 -0.40957,1.11459 -1.22202,1.69875 -0.80574,0.58416 -1.89347,0.58416 -1.1549,0 -1.88676,-0.63787 -0.73189,-0.64459 -0.8796,-1.8062 z m 4.94855,-4.34424 q 0,-1.04074 -0.5573,-1.65175 -0.55058,-0.61102 -1.32945,-0.61102 -0.80575,0 -1.40332,0.65801 -0.59759,0.65803 -0.59759,1.70548 0,0.94002 0.56401,1.5309 0.57073,0.58415 1.40333,0.58415 0.8393,0 1.37645,-0.58415 0.54387,-0.59088 0.54387,-1.63162 z" />
    <path
       inkscape:connector-curvature="0"
       id="path61"
       style="font-size:14px;font-family:Arial;fill:#00378b;stroke-width:0.98222762"
       d="m 216.73032,820.25665 q 0,-1.74576 0.35585,-2.80664 0.36259,-1.06759 1.06761,-1.64504 0.71173,-0.57744 1.78604,-0.57744 0.7923,0 1.38989,0.32229 0.59758,0.31559 0.98703,0.91989 0.38943,0.59758 0.61101,1.46374 0.22157,0.85945 0.22157,2.3232 0,1.73233 -0.35586,2.79993 -0.35587,1.06088 -1.0676,1.64504 -0.70502,0.57744 -1.78604,0.57744 -1.42346,0 -2.23591,-1.0206 -0.97359,-1.22874 -0.97359,-4.00181 z m 1.24217,0 q 0,2.42392 0.564,3.22965 0.57074,0.79902 1.40333,0.79902 0.83259,0 1.39661,-0.80574 0.57073,-0.80573 0.57073,-3.22293 0,-2.43062 -0.57073,-3.22965 -0.56402,-0.79902 -1.41005,-0.79902 -0.83258,0 -1.32945,0.70503 -0.62444,0.89972 -0.62444,3.32364 z" />
  </g>
</svg>
